# xmcd
#
# Track frame offsets: 
#        150
#        14048
#        27811
#        40262
#        52050
#        65759
#        79844
#        90492
#        104163
#        119313
#
# Disc length: 1720 seconds
#
# Revision: 0
# Processed by: cddbd v1.5.2PL0 Copyright (c) Steve Scherf et al.
# Submitted via: ExactAudioCopy v0.99pb5
#
DISCID=8906b60a
DTITLE=Various Artist - Navidad de las Estrellas
DYEAR=2006
DGENRE=Latin
TTITLE0=Felíz Navidad - José Feliciano
TTITLE1=La canción del Tamborilero - Raphael
TTITLE2=Noche de Paz - Pablo Ruiz
TTITLE3=Campana sobre Campana - Yuri
TTITLE4=Adeste Fidelis - Mijares
TTITLE5=Los peces en el río - Pandora
TTITLE6=Campanas de Plata - Myriam Hernández
TTITLE7=Los Campanilleros - Hernaldo
TTITLE8=Esta Noche es Noche Buena - Lucho Gatica
TTITLE9=Rodolfo el Reno - Elenco Rojo
EXTD=
EXTT0=Felíz Navidad
EXTT1=
EXTT2=
EXTT3=
EXTT4=
EXTT5=
EXTT6=
EXTT7=
EXTT8=
EXTT9=
PLAYORDER=
